<?xml version="1.0" encoding="UTF-8" standalone="no"?>
<svg
   xmlns:dc="http://purl.org/dc/elements/1.1/"
   xmlns:cc="http://creativecommons.org/ns#"
   xmlns:rdf="http://www.w3.org/1999/02/22-rdf-syntax-ns#"
   xmlns:svg="http://www.w3.org/2000/svg"
   xmlns="http://www.w3.org/2000/svg"
   xmlns:sodipodi="http://sodipodi.sourceforge.net/DTD/sodipodi-0.dtd"
   xmlns:inkscape="http://www.inkscape.org/namespaces/inkscape"
   id="_101-pie-chart"
   data-name="101-pie-chart"
   width="63.93"
   height="63.93"
   viewBox="0 0 63.93 63.93"
   version="1.1"
   sodipodi:docname="seo.svg"
   inkscape:version="1.0.2-2 (e86c870879, 2021-01-15)">
  <metadata
     id="metadata56">
    <rdf:RDF>
      <cc:Work
         rdf:about="">
        <dc:format>image/svg+xml</dc:format>
        <dc:type
           rdf:resource="http://purl.org/dc/dcmitype/StillImage" />
        <dc:title></dc:title>
      </cc:Work>
    </rdf:RDF>
  </metadata>
  <defs
     id="defs54" />
  <sodipodi:namedview
     pagecolor="#ffffff"
     bordercolor="#666666"
     borderopacity="1"
     objecttolerance="10"
     gridtolerance="10"
     guidetolerance="10"
     inkscape:pageopacity="0"
     inkscape:pageshadow="2"
     inkscape:window-width="1920"
     inkscape:window-height="1017"
     id="namedview52"
     showgrid="false"
     inkscape:snap-others="true"
     inkscape:zoom="2.3503862"
     inkscape:cx="19.041738"
     inkscape:cy="-39.619956"
     inkscape:window-x="1912"
     inkscape:window-y="-8"
     inkscape:window-maximized="1"
     inkscape:current-layer="_101-pie-chart"
     inkscape:document-rotation="0" />
  <g
     id="Outline"
     transform="matrix(0.1221375,0,0,0.12213742,1.918834,0.21702595)">
    <path
       d="M 32,168 H 16 V 136 A 40.045,40.045 0 0 1 56,96 H 328 V 80 h -16 a 8,8 0 0 1 -5.657,-13.657 l 48,-48 a 8,8 0 0 1 11.314,0 l 48,48 A 8,8 0 0 1 408,80 h -16 v 16 h 32 a 40.045,40.045 0 0 1 40,40 V 296 H 448 V 136 A 24.028,24.028 0 0 0 424,112 H 392 V 256 H 376 V 72 a 8,8 0 0 1 8,-8 h 4.687 L 360,35.313 331.313,64 H 336 a 8,8 0 0 1 8,8 V 264 H 328 V 112 H 56 a 24.028,24.028 0 0 0 -24,24 z m 24,248 h 133.247 l -19.2,64 H 152 v 16 h 176 v -16 h -18.047 l -10.29,-34.3 -15.326,4.6 8.911,29.7 h -106.5 l 19.2,-64 H 264 V 400 H 56 A 24.028,24.028 0 0 1 32,376 v -8 H 256 V 352 H 32 V 184 H 16 v 192 a 40.045,40.045 0 0 0 40,40 z M 296,280 V 152 H 264 V 336 H 56 v -16 h 32 v -64 a 8,8 0 0 1 8,-8 h 48 a 8,8 0 0 1 8,8 v 64 h 16 V 200 a 8,8 0 0 1 8,-8 h 48 a 8,8 0 0 1 8,8 v 120 h 16 V 144 a 8,8 0 0 1 8,-8 h 48 a 8,8 0 0 1 8,8 V 280 Z M 136,264 h -32 v 56 h 32 z m 80,-56 h -32 v 112 h 32 z M 56,128 v 16 h 16 v -16 z m 48,0 H 88 v 16 h 16 z m 16,0 v 16 h 16 V 128 Z M 488.967,455.033 A 24.167,24.167 0 0 1 496,472 23.978,23.978 0 0 1 472,496 24.5,24.5 0 0 1 455.033,488.967 L 416.74,450.675 A 96.074,96.074 0 1 1 450.675,416.74 Z M 448,368 a 80,80 0 1 0 -80,80 80.091,80.091 0 0 0 80,-80 z m 29.652,98.348 -36.387,-36.389 a 96.887,96.887 0 0 1 -11.306,11.306 l 36.389,36.387 a 7.993,7.993 0 1 0 11.3,-11.3 z M 432,368 a 64,64 0 1 1 -64,-64 64.072,64.072 0 0 1 64,64 z m -16,0 a 48,48 0 1 0 -48,48 48.053,48.053 0 0 0 48,-48 z m -80,0 h 16 a 16.019,16.019 0 0 1 16,-16 v -16 a 32.036,32.036 0 0 0 -32,32 z M 440,64 h 16 A 48.053,48.053 0 0 0 408,16 v 16 a 32.036,32.036 0 0 1 32,32 z"
       id="path21"
       style="fill:#5d78ff;fill-opacity:1;fill-rule:nonzero" />
  </g>
</svg>
