<?xml version="1.0" encoding="UTF-8" standalone="no"?>
<svg
   xmlns:dc="http://purl.org/dc/elements/1.1/"
   xmlns:cc="http://creativecommons.org/ns#"
   xmlns:rdf="http://www.w3.org/1999/02/22-rdf-syntax-ns#"
   xmlns:svg="http://www.w3.org/2000/svg"
   xmlns="http://www.w3.org/2000/svg"
   xmlns:sodipodi="http://sodipodi.sourceforge.net/DTD/sodipodi-0.dtd"
   xmlns:inkscape="http://www.inkscape.org/namespaces/inkscape"
   id="_101-pie-chart"
   data-name="101-pie-chart"
   width="63.93"
   height="63.93"
   viewBox="0 0 63.93 63.93"
   version="1.1"
   sodipodi:docname="web.svg"
   inkscape:version="1.0.2-2 (e86c870879, 2021-01-15)">
  <metadata
     id="metadata56">
    <rdf:RDF>
      <cc:Work
         rdf:about="">
        <dc:format>image/svg+xml</dc:format>
        <dc:type
           rdf:resource="http://purl.org/dc/dcmitype/StillImage" />
      </cc:Work>
    </rdf:RDF>
  </metadata>
  <defs
     id="defs54" />
  <sodipodi:namedview
     pagecolor="#ffffff"
     bordercolor="#666666"
     borderopacity="1"
     objecttolerance="10"
     gridtolerance="10"
     guidetolerance="10"
     inkscape:pageopacity="0"
     inkscape:pageshadow="2"
     inkscape:window-width="1920"
     inkscape:window-height="1017"
     id="namedview52"
     showgrid="false"
     inkscape:snap-others="true"
     inkscape:zoom="13.295792"
     inkscape:cx="17.486735"
     inkscape:cy="22.939588"
     inkscape:window-x="1912"
     inkscape:window-y="-8"
     inkscape:window-maximized="1"
     inkscape:current-layer="Group_1237" />
  <g
     id="Group_1237"
     data-name="Group 1237"
     transform="translate(0 5.304)">
    <g
       id="Group_1236"
       data-name="Group 1236">
      <path
         id="Path_1444"
         data-name="Path 1444"
         d="M30.592,68.88V40.846H29.313A29.313,29.313,0,1,0,58.625,70.159V68.88H30.592ZM29.313,96.915a26.756,26.756,0,0,1-1.279-53.482v28h28A26.789,26.789,0,0,1,29.313,96.915Z"
         transform="translate(0 -40.846)"
         fill="#5d78ff" />
    </g>
  </g>
  <g
     id="Group_1239"
     data-name="Group 1239"
     transform="translate(33.339)">
    <g
       id="Group_1238"
       data-name="Group 1238">
      <path
         id="Path_1445"
         data-name="Path 1445"
         d="M258.01,0h-1.279V30.592h30.592V29.313A29.346,29.346,0,0,0,258.01,0Zm1.279,28.034V2.587a26.794,26.794,0,0,1,25.447,25.447H259.288Z"
         transform="translate(-256.731)"
         fill="#5d78ff" />
    </g>
  </g>
</svg>
