<?xml version="1.0" encoding="UTF-8" standalone="no"?>
<svg
   xmlns:dc="http://purl.org/dc/elements/1.1/"
   xmlns:cc="http://creativecommons.org/ns#"
   xmlns:rdf="http://www.w3.org/1999/02/22-rdf-syntax-ns#"
   xmlns:svg="http://www.w3.org/2000/svg"
   xmlns="http://www.w3.org/2000/svg"
   xmlns:sodipodi="http://sodipodi.sourceforge.net/DTD/sodipodi-0.dtd"
   xmlns:inkscape="http://www.inkscape.org/namespaces/inkscape"
   version="1.1"
   id="svg2"
   xml:space="preserve"
   width="402.18213"
   height="154.96086"
   viewBox="0 0 402.18212 154.96086"
   sodipodi:docname="gastrofy-logo-widget.svg"
   inkscape:version="1.0.2-2 (e86c870879, 2021-01-15)"><metadata
     id="metadata8"><rdf:RDF><cc:Work
         rdf:about=""><dc:format>image/svg+xml</dc:format><dc:type
           rdf:resource="http://purl.org/dc/dcmitype/StillImage" /><dc:title></dc:title></cc:Work></rdf:RDF></metadata><defs
     id="defs6"><rect
       x="394.20261"
       y="283.62677"
       width="325.86096"
       height="78.246246"
       id="rect1497" /></defs><sodipodi:namedview
     pagecolor="#ffffff"
     bordercolor="#666666"
     borderopacity="1"
     objecttolerance="10"
     gridtolerance="10"
     guidetolerance="10"
     inkscape:pageopacity="0"
     inkscape:pageshadow="2"
     inkscape:window-width="1920"
     inkscape:window-height="1027"
     id="namedview4"
     inkscape:document-rotation="0"
     showgrid="false"
     fit-margin-top="0"
     fit-margin-left="0"
     fit-margin-right="0"
     fit-margin-bottom="0"
     inkscape:zoom="0.75722483"
     inkscape:cx="275.43394"
     inkscape:cy="140.70489"
     inkscape:window-x="-8"
     inkscape:window-y="-8"
     inkscape:window-maximized="1"
     inkscape:current-layer="g12" /><g
     id="g10"
     inkscape:groupmode="layer"
     inkscape:label="ink_ext_XXXXXX"
     transform="matrix(1.3333333,0,0,-1.3333333,-175.55496,643.45697)"><g
       id="g12"
       transform="scale(0.1)"><g
         id="g92"
         transform="scale(10)"><text
           xml:space="preserve"
           style="font-style:normal;font-weight:normal;font-size:56px;line-height:1.25;font-family:sans-serif;opacity:1;fill:#5d78ff;fill-opacity:1;stroke:none;stroke-width:0.75;stroke-opacity:1"
           x="215.92001"
           y="-421.30051"
           id="text1493"
           transform="scale(1,-1)"><tspan
             sodipodi:role="line"
             id="tspan1491"
             x="215.92001"
             y="-421.30051"
             style="font-style:normal;font-variant:normal;font-weight:bold;font-stretch:normal;font-size:56px;font-family:Cambria;-inkscape-font-specification:'Cambria Bold';fill:#f8f9fa;fill-opacity:1;stroke:none;stroke-width:0.75;stroke-opacity:1">Gastrofy</tspan></text><text
           xml:space="preserve"
           id="text1495"
           style="font-style:normal;font-weight:normal;font-size:30px;line-height:1.25;font-family:sans-serif;white-space:pre;shape-inside:url(#rect1497);fill:#000000;fill-opacity:1;stroke:none;" /></g><path
         d="m 1719.58,4702.79 c -10.31,-6.79 -24.15,-3.9 -30.9,6.43 -6.78,10.29 -3.9,24.15 6.43,30.89 10.29,6.79 24.15,3.89 30.9,-6.4 6.78,-10.3 3.91,-24.14 -6.43,-30.92 z m -63.09,-32.21 -144.02,-93.52 c -6.74,-4.43 -15.78,-2.53 -20.19,4.18 -4.41,6.76 -2.95,16.44 3.79,20.87 l 144.03,93.53 c 6.72,4.44 16.25,1.77 20.69,-4.96 4.42,-6.71 2.49,-15.68 -4.3,-20.1 z m 200.91,-24.99 c 22.76,-2.74 44.92,-7.39 66.31,-13.89 l -117.97,181.65 c -9.01,13.73 -29.03,16.49 -43.57,6.94 L 1331.46,4540.6 c -14.55,-9.53 -19.2,-28.16 -10.21,-41.88 l 41.68,-64.17 444.19,288.46 50.28,-77.42"
         style="fill:#f8f9fa;fill-opacity:1;fill-rule:nonzero;stroke:none"
         id="path104" /><path
         d="m 2096.27,3835.63 c -21.74,-14.13 -50.81,-7.95 -64.93,13.8 -14.11,21.73 -7.94,50.81 13.81,64.92 21.73,14.13 50.8,7.95 64.92,-13.8 14.13,-21.74 7.94,-50.81 -13.8,-64.92 z m 243.14,155.93 -142.01,218.69 c -2.5,-20.14 -6.53,-39.81 -12,-58.89 l 53.47,-82.33 -413.82,-268.73 -45.18,69.57 c -18.98,1.47 -37.58,4.32 -55.71,8.44 l 130.77,-201.38 c 8.99,-13.74 23.33,-17.43 37.89,-7.89 l 438.41,284.71 c 14.62,9.4 17.08,24.01 8.18,37.81"
         style="fill:#f8f9fa;fill-opacity:1;fill-rule:nonzero;stroke:none"
         id="path106" /><path
         d="m 2002.63,4273.38 c 0,-35.61 -23.21,-65.68 -55.1,-75.57 v -179.93 c -14.38,-8.22 -29.55,-15.2 -45.39,-20.76 v 200.69 c -31.88,9.89 -55.08,39.96 -55.08,75.57 v 181.88 c 0,5.55 4.52,10.09 10.08,10.09 5.58,0 10.11,-4.54 10.11,-10.09 v -145.01 h 24.92 v 145.01 c 0,5.55 4.53,10.09 10.1,10.09 5.6,0 10.12,-4.54 10.12,-10.09 v -145.01 h 24.93 v 145.01 c 0,5.55 4.52,10.09 10.08,10.09 5.59,0 10.11,-4.54 10.11,-10.09 v -145.01 h 24.93 v 145.01 c 0,5.55 4.52,10.09 10.1,10.09 5.58,0 10.09,-4.54 10.09,-10.09 z m -274.61,-74.4 v -204.96 c -15.78,4.94 -30.94,11.31 -45.39,18.86 v 186.1 c -36.99,15.57 -64.23,68.2 -64.23,130.83 0,74.85 38.93,135.54 86.92,135.54 48.01,0 86.9,-60.69 86.9,-135.54 0,-62.63 -27.22,-115.26 -64.2,-130.83 z m 82.5,408.46 c -192.41,0 -348.92,-156.51 -348.92,-348.91 0,-192.41 156.51,-348.9 348.92,-348.92 192.4,0.01 348.92,156.51 348.92,348.92 0,192.4 -156.51,348.91 -348.92,348.91"
         style="fill:#5d78ff;fill-opacity:1;fill-rule:nonzero;stroke:none"
         id="path108" /></g></g></svg>
